HIERARCHY
ROOT Hips
{
	OFFSET 0.000000 0.000000 0.000000
	CHANNELS 6 Xposition Yposition Zposition Xrotation Yrotation Zrotation
	JOINT LeftUpLeg_virtual
	{
		OFFSET 0.000000 0.000000 0.000000
		CHANNELS 3 Xrotation Yrotation Zrotation
		JOINT LeftUpLeg
		{
			OFFSET 10.205400 -3.823500 0.155100
			CHANNELS 3 Xrotation Yrotation Zrotation
			JOINT LeftLeg
			{
				OFFSET 0.708757 -12.982077 0.567790
				CHANNELS 3 Xrotation Yrotation Zrotation
				JOINT LeftFoot
				{
					OFFSET -0.708756 -10.717838 -2.184338
					CHANNELS 3 Xrotation Yrotation Zrotation
					JOINT LeftToeBase
					{
						OFFSET 0.108149 -7.191104 7.560241
						CHANNELS 3 Xrotation Yrotation Zrotation
						JOINT LeftToe_End
						{
							OFFSET 0.070230 0.081724 4.490308
							CHANNELS 3 Xrotation Yrotation Zrotation
							End Site
							{
								OFFSET 0 0 0
							}
						}
					}
				}
			}
		}
	}
	JOINT RightUpLeg_virtual
	{
		OFFSET 0.000000 0.000000 0.000000
		CHANNELS 3 Xrotation Yrotation Zrotation
		JOINT RightUpLeg
		{
			OFFSET -10.205400 -3.823500 0.005500
			CHANNELS 3 Xrotation Yrotation Zrotation
			JOINT RightLeg
			{
				OFFSET -0.708756 -12.982134 0.610632
				CHANNELS 3 Xrotation Yrotation Zrotation
				JOINT RightFoot
				{
					OFFSET 0.708754 -10.717769 -1.945823
					CHANNELS 3 Xrotation Yrotation Zrotation
					JOINT RightToeBase
					{
						OFFSET -0.108140 -7.191069 7.372968
						CHANNELS 3 Xrotation Yrotation Zrotation
						JOINT RightToe_End
						{
							OFFSET -0.070227 0.081735 4.479403
							CHANNELS 3 Xrotation Yrotation Zrotation
							End Site
							{
								OFFSET 0 0 0
							}
						}
					}
				}
			}
		}
	}
	JOINT Spine_virtual
	{
		OFFSET 0.000000 0.000000 0.000000
		CHANNELS 3 Xrotation Yrotation Zrotation
		JOINT Spine
		{
			OFFSET 0.000000 6.876099 0.125700
			CHANNELS 3 Xrotation Yrotation Zrotation
			JOINT Spine1
			{
				OFFSET 0.000000 5.730043 0.104720
				CHANNELS 3 Xrotation Yrotation Zrotation
				JOINT Spine1_split
				{
					OFFSET 0.000000 5.730043 0.104720
					CHANNELS 3 Xrotation Yrotation Zrotation
					JOINT Spine2
					{
						OFFSET 0.000000 5.730043 0.104720
						CHANNELS 3 Xrotation Yrotation Zrotation
						JOINT Neck_virtual
						{
							OFFSET 0.000000 0.000000 0.000000
							CHANNELS 3 Xrotation Yrotation Zrotation
							JOINT Neck
							{
								OFFSET 0.000000 10.314075 0.188496
								CHANNELS 3 Xrotation Yrotation Zrotation
								JOINT Head
								{
									OFFSET 0.000000 7.643700 -2.377400
									CHANNELS 3 Xrotation Yrotation Zrotation
									JOINT HeadTop_End
									{
										OFFSET 0.000000 43.788605 -13.619600
										CHANNELS 3 Xrotation Yrotation Zrotation
										End Site
										{
											OFFSET 0 0 0
										}
									}
								}
							}
						}
						JOINT LeftShoulder_virtual
						{
							OFFSET 0.000000 0.000000 0.000000
							CHANNELS 3 Xrotation Yrotation Zrotation
							JOINT LeftShoulder
							{
								OFFSET 2.196100 4.412489 0.087492
								CHANNELS 3 Xrotation Yrotation Zrotation
								JOINT LeftShoulder_split
								{
									OFFSET 2.196100 4.412489 0.087492
									CHANNELS 3 Xrotation Yrotation Zrotation
									JOINT LeftArm
									{
										OFFSET 8.771219 -2.981674 -0.026999
										CHANNELS 3 Xrotation Yrotation Zrotation
										JOINT LeftForeArm
										{
											OFFSET 8.512804 0.000000 -0.000000
											CHANNELS 3 Xrotation Yrotation Zrotation
											JOINT LeftHand
											{
												OFFSET 18.484802 0.000000 -0.000000
												CHANNELS 3 Xrotation Yrotation Zrotation
												End Site
												{
													OFFSET 0 0 0
												}
											}
										}
									}
								}
							}
						}
						JOINT RightShoulder_virtual
						{
							OFFSET 0.000000 0.000000 0.000000
							CHANNELS 3 Xrotation Yrotation Zrotation
							JOINT RightShoulder
							{
								OFFSET -2.196100 4.412496 0.070690
								CHANNELS 3 Xrotation Yrotation Zrotation
								JOINT RightShoulder_split
								{
									OFFSET -2.196100 4.412496 0.070690
									CHANNELS 3 Xrotation Yrotation Zrotation
									JOINT RightArm
									{
										OFFSET -8.771282 -2.981682 -0.094208
										CHANNELS 3 Xrotation Yrotation Zrotation
										JOINT RightForeArm
										{
											OFFSET -8.494598 0.000000 0.000000
											CHANNELS 3 Xrotation Yrotation Zrotation
											JOINT RightHand
											{
												OFFSET -18.483803 0.000000 0.000001
												CHANNELS 3 Xrotation Yrotation Zrotation
												End Site
												{
													OFFSET 0 0 0
												}
											}
										}
									}
								}
							}
						}
					}
				}
			}
		}
	}
}
MOTION
Frames: 6
Frame Time: 0.03333333
0.053885 36.896008 -0.379070 0.000000 0.000000 0.000000 -87.408499 -6.741985 -1.097373 8.578961 24.515217 13.774305 -2.140093 -0.900047 4.251025 14.852403 29.888993 -25.609359 -3.764580 -0.228158 1.626960 0.000000 0.000000 0.000000 -89.795527 -3.202881 1.154486 12.323389 -25.574081 -18.280182 -7.204173 -0.483328 -5.346721 30.352503 -33.177637 37.847926 -11.222671 0.899679 -2.813172 0.000000 0.000000 0.000000 -87.490140 -7.341296 -2.935167 0.774833 -0.592568 -0.025162 -1.410090 0.321714 -0.204529 0.711285 0.927134 -0.326608 0.000000 0.000000 0.000000 -1.530473 0.358608 -0.244117 -6.231821 4.042094 -8.522234 5.577646 8.686432 -13.037299 0.000000 0.000000 0.000000 -0.455283 0.383500 -0.106527 0.460398 -5.950075 -0.892931 -0.552112 1.935930 -2.830574 44.352691 -42.191103 -32.453873 5.201254 -86.385617 4.589244 0.000000 0.000000 0.000000 -0.237826 0.740974 -0.423091 0.371476 0.471193 2.637966 7.604545 8.028787 -0.928304 -4.743009 1.852645 81.066265 -179.259408 54.832253 -179.826505 0.000000 0.000000 0.000000 
0.058856 36.898335 -0.381342 0.000000 0.000000 0.000000 -87.429673 -6.746158 -1.095342 8.599288 24.519966 13.753130 -2.134476 -0.927029 4.246576 14.883020 29.871358 -25.620586 -3.788027 -0.230797 1.618317 0.000000 0.000000 0.000000 -89.808464 -3.195575 1.164027 12.312522 -25.578196 -18.288841 -7.198253 -0.499000 -5.359273 30.373049 -33.200843 37.858188 -11.149981 0.901525 -2.827193 0.000000 0.000000 0.000000 -87.516013 -7.346234 -2.947031 0.787202 -0.593813 -0.016646 -1.412968 0.325271 -0.202828 0.716668 0.919845 -0.315272 0.000000 0.000000 0.000000 -1.546548 0.366451 -0.245661 -6.210397 4.097571 -8.527938 6.157612 8.839242 -13.404053 0.000000 0.000000 0.000000 -0.445944 0.381634 -0.103488 0.450950 -5.966144 -0.939468 -0.551766 1.943433 -2.740627 44.326234 -42.193862 -32.522984 5.180939 -86.360625 4.573116 0.000000 0.000000 0.000000 -0.231998 0.746533 -0.423712 0.371109 0.486706 2.661488 7.618694 8.046556 -0.928237 -4.711891 1.833902 80.965445 -179.259298 54.769846 -179.811956 0.000000 0.000000 0.000000 
0.063447 36.899788 -0.383331 0.000000 0.000000 0.000000 -87.452130 -6.746399 -1.093137 8.612864 24.524918 13.734849 -2.123621 -0.956519 4.242142 14.908546 29.852476 -25.632221 -3.809173 -0.233711 1.608275 0.000000 0.000000 0.000000 -89.822281 -3.188655 1.171495 12.300023 -25.579175 -18.293168 -7.190319 -0.513669 -5.372520 30.396855 -33.223618 37.868457 -11.080302 0.903166 -2.839593 0.000000 0.000000 0.000000 -87.542152 -7.353353 -2.958287 0.797265 -0.594081 -0.004790 -1.418199 0.331887 -0.202085 0.722848 0.925757 -0.292563 0.000000 0.000000 0.000000 -1.569195 0.375473 -0.245826 -6.186313 4.179000 -8.546080 6.922098 9.030044 -13.904821 0.000000 0.000000 0.000000 -0.438350 0.382246 -0.097465 0.436819 -5.966033 -0.992142 -0.547158 1.943136 -2.658642 44.310487 -42.206051 -32.547754 5.055213 -86.338577 4.452025 0.000000 0.000000 0.000000 -0.228297 0.752118 -0.427443 0.368511 0.462343 2.672231 7.651601 8.083149 -0.923964 -4.678737 1.813501 80.873080 -179.250692 54.695001 -179.811287 0.000000 0.000000 0.000000 
0.067200 36.900669 -0.385691 0.000000 0.000000 0.000000 -87.472600 -6.743101 -1.091830 8.619082 24.529238 13.720248 -2.109912 -0.987844 4.238715 14.928080 29.833727 -25.645460 -3.828590 -0.236768 1.597588 0.000000 0.000000 0.000000 -89.833558 -3.181747 1.177084 12.287565 -25.578077 -18.293089 -7.185737 -0.526821 -5.385161 30.424596 -33.241294 37.880513 -11.016605 0.904429 -2.850699 0.000000 0.000000 0.000000 -87.565785 -7.362921 -2.969858 0.803482 -0.594931 0.009458 -1.424305 0.338486 -0.201913 0.722716 0.936775 -0.270672 0.000000 0.000000 0.000000 -1.595112 0.383992 -0.244258 -6.178847 4.276050 -8.565753 7.763033 9.220346 -14.472754 0.000000 0.000000 0.000000 -0.434034 0.384150 -0.089072 0.420932 -5.948828 -1.044991 -0.539488 1.940245 -2.597066 44.311293 -42.227300 -32.536378 4.822537 -86.315915 4.223834 0.000000 0.000000 0.000000 -0.227550 0.755785 -0.433241 0.364795 0.401229 2.667854 7.696734 8.122756 -0.915766 -4.651786 1.794911 80.810741 -179.234682 54.630667 -179.824374 0.000000 0.000000 0.000000 
0.069924 36.901516 -0.387535 0.000000 0.000000 0.000000 -87.490222 -6.737092 -1.091915 8.618066 24.531519 13.710549 -2.095289 -1.018231 4.237212 14.945229 29.815125 -25.662984 -3.848728 -0.239850 1.587487 0.000000 0.000000 0.000000 -89.840763 -3.173854 1.180155 12.280252 -25.576021 -18.286319 -7.191257 -0.539897 -5.396713 30.454243 -33.253148 37.892575 -10.959776 0.905383 -2.861077 0.000000 0.000000 0.000000 -87.583557 -7.375383 -2.983419 0.805308 -0.596222 0.024143 -1.429714 0.342739 -0.201690 0.723438 0.959983 -0.250772 0.000000 0.000000 0.000000 -1.622894 0.389897 -0.240040 -6.205991 4.371271 -8.579530 8.573521 9.373025 -15.024253 0.000000 0.000000 0.000000 -0.434075 0.386203 -0.078985 0.406354 -5.917353 -1.090943 -0.530017 1.930579 -2.559622 44.331496 -42.257359 -32.501906 4.499014 -86.283061 3.905608 0.000000 0.000000 0.000000 -0.229833 0.756651 -0.439670 0.360366 0.310950 2.651067 7.742823 8.158128 -0.898403 -4.635095 1.789054 80.785080 -179.212348 54.594030 -179.849140 0.000000 0.000000 0.000000 
0.071651 36.902458 -0.388700 0.000000 0.000000 0.000000 -87.504108 -6.728907 -1.092711 8.610976 24.532496 13.705158 -2.081472 -1.044349 4.237577 14.964191 29.797523 -25.684807 -3.870879 -0.242888 1.578758 0.000000 0.000000 0.000000 -89.843823 -3.164430 1.182456 12.280214 -25.573982 -18.272947 -7.206601 -0.554154 -5.406459 30.481201 -33.261153 37.901191 -10.908514 0.906333 -2.871179 0.000000 0.000000 0.000000 -87.595311 -7.388846 -2.996896 0.806950 -0.598359 0.037359 -1.432870 0.343701 -0.200953 0.722582 0.995495 -0.237491 0.000000 0.000000 0.000000 -1.649218 0.393123 -0.233924 -6.269774 4.451717 -8.580641 9.248403 9.462071 -15.487042 0.000000 0.000000 0.000000 -0.439310 0.387970 -0.067804 0.395580 -5.874572 -1.128105 -0.510799 1.909733 -2.546878 44.369325 -42.293037 -32.457834 4.132787 -86.230646 3.544592 0.000000 0.000000 0.000000 -0.234609 0.755376 -0.445368 0.357325 0.206018 2.626053 7.781232 8.183745 -0.871503 -4.631502 1.800493 80.794294 -179.185901 54.579003 -179.881310 0.000000 0.000000 0.000000 
